<?xml version="1.0" encoding="utf-8"?>
<!-- Generator: Adobe Illustrator 17.0.0, SVG Export Plug-In . SVG Version: 6.00 Build 0)  -->
<!DOCTYPE svg PUBLIC "-//W3C//DTD SVG 1.1//EN" "http://www.w3.org/Graphics/SVG/1.1/DTD/svg11.dtd">
<svg version="1.1" id="Layer_1" xmlns="http://www.w3.org/2000/svg" xmlns:xlink="http://www.w3.org/1999/xlink" x="0px" y="0px"
	 width="144px" height="144px" viewBox="0 0 144 144" enable-background="new 0 0 144 144" xml:space="preserve">
<g>
	<g>
		<path fill="#ED1C24" d="M72,8.63C51.39,8.63,34.63,25.39,34.63,46c0,12.28,5.94,23.63,15.96,30.64v16.89c0,1.38,1.12,2.5,2.5,2.5
			h38.92c1.39,0,2.5-1.12,2.5-2.5V75.84c9.33-7.04,14.86-18.11,14.86-29.84C109.37,25.39,92.61,8.63,72,8.63z M89.51,91.03H55.59
			V76.79h33.92V91.03z M91.57,71.79H53.09c-0.2,0-0.4,0.02-0.58,0.07C44.4,65.75,39.63,56.25,39.63,46
			c0-17.85,14.52-32.37,32.37-32.37S104.37,28.15,104.37,46C104.37,56.13,99.61,65.68,91.57,71.79z"/>
	</g>
	<g>
		<path fill="#ED1C24" d="M72,121c-5.69,0-15.23,0.78-15.23,5.98c0,6.1,6.69,10.89,15.23,10.89s15.23-4.79,15.23-10.89
			C87.23,121.78,77.69,121,72,121z M72,132.87c-5.66,0-9.71-2.74-10.18-5.38C62.86,126.92,66.18,126,72,126s9.14,0.92,10.18,1.49
			C81.71,130.13,77.66,132.87,72,132.87z"/>
	</g>
	<g>
		<path fill="#ED1C24" d="M76.3,21.63c-0.07,1.38-1.24,2.44-2.63,2.36c-21.68-1.17-24.74,16.85-24.86,17.62
			c-0.19,1.24-1.25,2.12-2.47,2.12c-0.12,0-0.25-0.01-0.38-0.03c-1.36-0.21-2.3-1.49-2.09-2.85C43.91,40.61,47.75,17.6,73.94,19
			C75.32,19.07,76.38,20.25,76.3,21.63z"/>
	</g>
	<g>
		<path fill="#ED1C24" d="M95.01,104.56c-0.02,1.65-1.36,2.97-2.99,2.97h-0.04l-38.93-0.5c-1.66-0.02-2.98-1.38-2.96-3.03
			c0.02-1.66,1.34-3.01,3.03-2.97l38.93,0.5C93.71,101.55,95.04,102.91,95.01,104.56z"/>
	</g>
	<g>
		<path fill="#ED1C24" d="M95.01,114.65c-0.02,1.64-1.36,2.96-2.99,2.96h-0.04l-38.93-0.5c-1.66-0.02-2.99-1.38-2.96-3.03
			c0.02-1.66,1.34-3,3.03-2.97l38.93,0.5C93.71,111.63,95.04,112.99,95.01,114.65z"/>
	</g>
</g>
</svg>
