<?xml version="1.0" encoding="utf-8"?>
<!-- Generator: Adobe Illustrator 17.0.0, SVG Export Plug-In . SVG Version: 6.00 Build 0)  -->
<!DOCTYPE svg PUBLIC "-//W3C//DTD SVG 1.1//EN" "http://www.w3.org/Graphics/SVG/1.1/DTD/svg11.dtd">
<svg version="1.1" id="Layer_1" xmlns="http://www.w3.org/2000/svg" xmlns:xlink="http://www.w3.org/1999/xlink" x="0px" y="0px"
	 width="144px" height="144px" viewBox="0 0 144 144" enable-background="new 0 0 144 144" xml:space="preserve">
<g>
	<g>
		<path fill="#ffffff" d="M92.76,95.92V30.75c0-12.31-10.01-22.32-22.32-22.32S48.12,18.44,48.12,30.75v64.93
			c-3.64,1.62-6.37,4.94-7.16,8.94h-0.24v2.44c0,6.86,5.58,12.44,12.44,12.44h34.06c6.86,0,12.44-5.58,12.44-12.44
			C99.66,102.18,96.85,97.96,92.76,95.92z M53.12,30.75c0-9.55,7.77-17.32,17.32-17.32s17.32,7.77,17.32,17.32v63.88
			c-0.18-0.02-0.36-0.02-0.54-0.02h-5.94V31.06c0-0.15,0-0.31-0.01-0.46c-0.24-5.83-4.98-10.38-10.83-10.38s-10.6,4.56-10.83,10.39
			c-0.01,0.15-0.02,0.3-0.02,0.45v63.55h-6.47V30.75z M76.28,31.06v63.55H64.59V30.98l0.01-0.14c0.11-3.15,2.68-5.62,5.84-5.62
			s5.72,2.47,5.83,5.62L76.28,31.06z M87.22,114.5H53.16c-4.1,0-7.44-3.34-7.44-7.44c0-2.76,1.5-5.17,3.73-6.45h41.48
			c2.23,1.28,3.73,3.69,3.73,6.45C94.66,111.16,91.32,114.5,87.22,114.5z"/>
	</g>
	<g>
		<path fill="#ffffff" d="M70.44,121.48c-2.97,0-12.65,0.44-12.65,6.19c0,6.29,5.67,11.4,12.65,11.4c6.97,0,12.64-5.11,12.64-11.4
			C83.08,121.92,73.4,121.48,70.44,121.48z M70.44,134.07c-4.11,0-7.48-2.73-7.65-6.13c0.69-0.57,3.35-1.46,7.65-1.46
			c4.29,0,6.95,0.89,7.64,1.46C77.91,131.34,74.54,134.07,70.44,134.07z"/>
	</g>
</g>
</svg>
