<?xml version="1.0" encoding="utf-8"?>
<!-- Generator: Adobe Illustrator 17.0.0, SVG Export Plug-In . SVG Version: 6.00 Build 0)  -->
<!DOCTYPE svg PUBLIC "-//W3C//DTD SVG 1.1//EN" "http://www.w3.org/Graphics/SVG/1.1/DTD/svg11.dtd">
<svg version="1.1" id="Layer_1" xmlns="http://www.w3.org/2000/svg" xmlns:xlink="http://www.w3.org/1999/xlink" x="0px" y="0px"
	 width="144px" height="144px" viewBox="0 0 144 144" enable-background="new 0 0 144 144" xml:space="preserve">
<g>
	<g>
		<path fill="#ffffff" d="M135,110.77c-0.73-2.85-2.52-5.24-5.04-6.74l-28.93-17.19c-1.7-1.01-3.64-1.54-5.61-1.54
			c-2.97,0-5.79,1.21-7.83,3.28l-4.9-2.73c0.1-0.55,0.15-1.13,0.15-1.71c0-4.49-2.95-8.3-7.03-9.57v-3.56
			c5.13-0.92,9.03-5.42,9.03-10.82V26.55c0-6.07-4.93-11-11-11h-2.06c-6.07,0-11,4.93-11,11v33.64c0,5.4,3.9,9.9,9.03,10.82v3.56
			c-4.08,1.27-7.03,5.08-7.03,9.57c0,0.72,0.08,1.42,0.22,2.1l-3.7,2.09c-2.06-2.34-5.08-3.73-8.26-3.73
			c-1.97,0-3.91,0.53-5.61,1.54l-28.92,17.19c-2.53,1.5-4.32,3.89-5.04,6.74c-0.73,2.85-0.3,5.81,1.2,8.33l1.05,1.78
			c1.98,3.32,5.6,5.38,9.47,5.38c1.97,0,3.91-0.53,5.61-1.54l28.92-17.19c2.53-1.5,4.32-3.89,5.05-6.74
			c0.56-2.22,0.42-4.51-0.38-6.61l3.57-2.02c1.79,1.69,4.2,2.72,6.85,2.72c2.79,0,5.32-1.14,7.14-2.99l4.36,2.43
			c-1.01,2.25-1.23,4.75-0.61,7.17c0.72,2.85,2.51,5.24,5.04,6.74l28.92,17.19c1.7,1.01,3.64,1.54,5.61,1.54c0,0,0,0,0.01,0
			c3.86,0,7.49-2.06,9.46-5.38l1.05-1.78C135.3,116.58,135.72,113.62,135,110.77z M58.89,99.1c-0.46,1.82-1.6,3.34-3.21,4.29
			l-28.92,17.19c-1.09,0.64-2.32,0.98-3.57,0.98c-2.46,0-4.77-1.31-6.03-3.42l-1.05-1.78c-0.96-1.61-1.23-3.49-0.77-5.3
			c0.46-1.81,1.6-3.34,3.21-4.29l28.93-17.19c1.08-0.64,2.31-0.98,3.56-0.98c2.46,0,4.77,1.31,6.03,3.43l1.05,1.77
			C59.08,95.41,59.35,97.29,58.89,99.1z M71.78,67.19c-3.86,0-7-3.14-7-7V26.55c0-3.86,3.14-7,7-7h2.06c3.86,0,7,3.14,7,7v33.64
			c0,3.86-3.14,7-7,7H71.78z M130.36,117.06l-1.06,1.78c-1.26,2.11-3.56,3.42-6.02,3.42c-0.01,0-0.01,0-0.01,0
			c-1.25,0-2.48-0.34-3.56-0.98l-28.93-17.19c-1.6-0.95-2.74-2.47-3.2-4.29c-0.47-1.81-0.19-3.69,0.76-5.3l1.06-1.78
			c1.25-2.11,3.56-3.42,6.02-3.42c1.25,0,2.49,0.34,3.57,0.98l28.92,17.19c1.61,0.95,2.75,2.48,3.21,4.29
			S131.31,115.45,130.36,117.06z"/>
	</g>
	<g>
		<path fill="#ffffff" d="M78.78,29.03c0,0.83-0.68,1.5-1.5,1.5c-0.83,0-1.5-0.67-1.5-1.5c0-1.53-0.36-2.61-1.06-3.2
			c-0.98-0.83-2.44-0.59-2.46-0.59c-0.81,0.15-1.59-0.4-1.73-1.21c-0.14-0.81,0.39-1.59,1.19-1.74c0.29-0.05,2.86-0.47,4.9,1.22
			C78.05,24.7,78.78,26.55,78.78,29.03z"/>
	</g>
	<g>
		<path fill="#ffffff" d="M128.18,114.86c-0.1,0.28-1.02,2.72-3.51,3.63c-0.59,0.21-1.21,0.32-1.85,0.32
			c-1.25,0-2.59-0.41-4.01-1.23c-0.71-0.42-0.96-1.34-0.54-2.05c0.42-0.72,1.33-0.96,2.05-0.55c1.32,0.77,2.43,1,3.3,0.69
			c1.2-0.42,1.73-1.81,1.74-1.82c0.29-0.77,1.15-1.17,1.92-0.89C128.05,113.24,128.46,114.09,128.18,114.86z"/>
	</g>
	<g>
		<path fill="#ffffff" d="M23.92,110.19c-1.37,0.68-2.18,1.48-2.4,2.37c-0.31,1.24,0.55,2.45,0.56,2.46
			c0.48,0.66,0.34,1.6-0.32,2.09c-0.27,0.2-0.58,0.29-0.89,0.29c-0.46,0-0.9-0.2-1.2-0.59c-0.17-0.23-1.69-2.35-1.07-4.93
			c0.43-1.81,1.77-3.28,3.99-4.38c0.74-0.37,1.64-0.06,2.01,0.68S24.66,109.82,23.92,110.19z"/>
	</g>
</g>
</svg>
