<?xml version="1.0" encoding="utf-8"?>
<!-- Generator: Adobe Illustrator 17.0.0, SVG Export Plug-In . SVG Version: 6.00 Build 0)  -->
<!DOCTYPE svg PUBLIC "-//W3C//DTD SVG 1.1//EN" "http://www.w3.org/Graphics/SVG/1.1/DTD/svg11.dtd">
<svg version="1.1" id="Layer_1" xmlns="http://www.w3.org/2000/svg" xmlns:xlink="http://www.w3.org/1999/xlink" x="0px" y="0px"
	 width="144px" height="144px" viewBox="0 0 144 144" enable-background="new 0 0 144 144" xml:space="preserve">
<g>
	<g>
		<path fill="#ED1C24" d="M125.15,121.64L88.14,72.3c-0.47-0.63-1.21-1-2-1H58.18c-0.78,0-1.51,0.36-1.99,0.98l-37.5,49.34
			c-0.57,0.76-0.67,1.78-0.25,2.63c0.43,0.85,1.29,1.39,2.24,1.39h102.47c0.95,0,1.81-0.54,2.24-1.38
			C125.81,123.41,125.72,122.4,125.15,121.64z M25.72,120.64l33.7-44.34h25.47l33.26,44.34H25.72z"/>
	</g>
	<g>
		<path fill="#ED1C24" d="M85.64,69.03H57.68c0-6.88,4.97-12.6,11.52-13.76l0.3-49.09C69.51,4.81,70.63,3.7,72,3.7
			c0,0,0.01,0,0.02,0c1.38,0.01,2.49,1.13,2.48,2.51l-0.3,49.07C80.71,56.47,85.64,62.18,85.64,69.03z"/>
	</g>
	<g>
		<path fill="#ED1C24" d="M84.99,127.74c0,7.18-5.81,13-12.99,13s-12.99-5.82-12.99-13H84.99z"/>
	</g>
</g>
</svg>
