<?xml version="1.0" encoding="utf-8"?>
<!-- Generator: Adobe Illustrator 17.0.0, SVG Export Plug-In . SVG Version: 6.00 Build 0)  -->
<!DOCTYPE svg PUBLIC "-//W3C//DTD SVG 1.1//EN" "http://www.w3.org/Graphics/SVG/1.1/DTD/svg11.dtd">
<svg version="1.1" id="Layer_1" xmlns="http://www.w3.org/2000/svg" xmlns:xlink="http://www.w3.org/1999/xlink" x="0px" y="0px"
	 width="144px" height="144px" viewBox="0 0 144 144" enable-background="new 0 0 144 144" xml:space="preserve">
<g>
	<path fill="#ffffff" d="M115.45,79.99v1.69h-0.05C115.43,81.12,115.45,80.56,115.45,79.99z"/>
</g>
<g>
	<path fill="#ffffff" d="M93.89,6.49c-4.69,0-8.51,3.82-8.51,8.51v19.45h-26.5V15c0-4.69-3.82-8.51-8.51-8.51s-8.5,3.82-8.5,8.51
		v27.96c0,4.4,3.36,8.03,7.65,8.46c0.28,0.03,0.56,0.04,0.85,0.04h43.52c0.2,0,0.39-0.01,0.59-0.02c4.41-0.3,7.91-3.99,7.91-8.48V15
		C102.39,10.31,98.58,6.49,93.89,6.49z M97.39,42.96c0,1.93-1.57,3.5-3.5,3.5c-0.37,0-0.75-0.06-1.1-0.18c0,0-0.01,0-0.02,0
		c-0.1-0.03-0.19-0.06-0.29-0.08c-0.04-0.01-0.09-0.02-0.14-0.02c-0.12-0.02-0.24-0.03-0.36-0.03c-0.15,0-0.31,0.01-0.45,0.04
		c-0.1,0.02-0.21,0.05-0.3,0.08c-0.09,0.02-0.18,0.05-0.26,0.1c-0.06,0.02-0.12,0.04-0.17,0.08c-0.01,0-0.02,0-0.03,0.01h-37.7
		c-0.08-0.04-0.16-0.07-0.25-0.1c-0.14-0.05-0.28-0.08-0.43-0.1c-0.12-0.02-0.25-0.03-0.37-0.03c-0.1,0-0.21,0.01-0.31,0.02
		c-0.03,0-0.05,0.01-0.08,0.01c-0.1,0.02-0.2,0.04-0.3,0.07c-0.02,0-0.04,0.01-0.05,0.01c-0.29,0.08-0.6,0.12-0.91,0.12
		c-1.93,0-3.5-1.57-3.5-3.5V15c0-1.94,1.57-3.51,3.5-3.51c1.94,0,3.51,1.57,3.51,3.51v21.95c0,1.38,1.12,2.5,2.5,2.5h31.5
		c1.38,0,2.5-1.12,2.5-2.5V15c0-1.94,1.57-3.51,3.51-3.51c1.93,0,3.5,1.57,3.5,3.51V42.96z"/>
</g>
<g>
	<path fill="#ffffff" d="M49.52,51.42c0.28,0.03,0.56,0.04,0.85,0.04h-0.85V51.42z"/>
	<path fill="#ffffff" d="M94.48,51.44v0.02h-0.59C94.09,51.46,94.28,51.45,94.48,51.44z"/>
</g>
<g>
	<path fill="#ffffff" d="M113.99,34.95h-5.81c-1.38,0-2.5,1.12-2.5,2.5v11.51c0,1.38,1.12,2.5,2.5,2.5H110
		c0.25,0,0.45,0.22,0.45,0.5v28.03c0,16.61-17.21,30.12-38.37,30.12c-20.99,0-38.11-13.31-38.37-29.75v-28.4
		c0-0.28,0.21-0.5,0.46-0.5h2.3c1.38,0,2.5-1.12,2.5-2.5V37.45c0-1.38-1.12-2.5-2.5-2.5h-6.29c-6.34,0-11.5,5.16-11.5,11.5v33.76
		c0,22.07,18.25,40.53,42.47,44.88v12.69h21.71v-12.67c24.3-4.29,42.63-22.79,42.63-44.9V46.45
		C125.49,40.11,120.33,34.95,113.99,34.95z M120.49,80.21c0,22.52-21.72,40.84-48.41,40.84s-48.4-18.32-48.4-40.84V46.45
		c0-3.58,2.92-6.5,6.5-6.5h3.79v6.52c-2.92,0.1-5.26,2.53-5.26,5.49v28.4c0.25,19.2,19.61,34.75,43.37,34.75
		c23.22,0,42.23-14.84,43.32-33.43c0.03-0.56,0.05-1.12,0.05-1.69V51.96c0-2.8-2.09-5.12-4.77-5.45v-6.56h3.31
		c3.58,0,6.5,2.92,6.5,6.5V80.21z"/>
</g>
<g>
	<polygon fill="#ffffff" points="57.03,101.88 65.26,77.74 57.03,77.25 64.76,56.85 82.2,56.85 76.44,72 86.8,72 	"/>
</g>
</svg>
