<?xml version="1.0" encoding="utf-8"?>
<!-- Generator: Adobe Illustrator 17.0.0, SVG Export Plug-In . SVG Version: 6.00 Build 0)  -->
<!DOCTYPE svg PUBLIC "-//W3C//DTD SVG 1.1//EN" "http://www.w3.org/Graphics/SVG/1.1/DTD/svg11.dtd">
<svg version="1.1" id="Layer_1" xmlns="http://www.w3.org/2000/svg" xmlns:xlink="http://www.w3.org/1999/xlink" x="0px" y="0px"
	 width="144px" height="144px" viewBox="0 0 144 144" enable-background="new 0 0 144 144" xml:space="preserve">
<g>
	<g>
		<path fill="#ffffff" d="M139.93,75.73h-9.19v-6.51h9.19c1.1,0,2-0.9,2-2c0-1.11-0.9-2-2-2h-9.19v-4.4c0-1.66-1.34-3-3-3h-110
			c-1.66,0-3,1.34-3,3v3.58h-8.2c-1.11,0-2,0.89-2,2c0,1.1,0.89,2,2,2h8.2v7.33h-8.2c-1.11,0-2,0.9-2,2c0,1.1,0.89,2,2,2h8.2v4.58
			c0,1.65,1.34,3,3,3h110c1.66,0,3-1.35,3-3v-4.58h9.19c1.1,0,2-0.9,2-2C141.93,76.63,141.03,75.73,139.93,75.73z M27.07,83.31
			h-8.33V61.82h8.33V83.31z M115.23,83.31H31.07V74h84.16V83.31z M115.23,70H31.07v-8.18h84.16V70z M126.74,83.31h-7.51V61.82h7.51
			V83.31z"/>
	</g>
</g>
</svg>
